<?xml version="1.0" encoding="UTF-8"?>
<svg xmlns="http://www.w3.org/2000/svg" xmlns:xlink="http://www.w3.org/1999/xlink" width="50pt" height="50pt" viewBox="0 0 50 50" version="1.1">
<g id="surface13543336">
<path style=" stroke:none;fill-rule:nonzero;fill:rgb(100%,100%,100%);fill-opacity:1;" d="M 35.417969 43.75 L 29.167969 43.75 L 25 48.957031 L 20.832031 43.75 L 14.582031 43.75 C 9.980469 43.75 6.25 40.019531 6.25 35.417969 L 6.25 14.582031 C 6.25 9.980469 9.980469 6.25 14.582031 6.25 L 35.417969 6.25 C 40.019531 6.25 43.75 9.980469 43.75 14.582031 L 43.75 35.417969 C 43.75 40.019531 40.019531 43.75 35.417969 43.75 Z M 35.417969 43.75 "/>
<path style=" stroke:none;fill-rule:nonzero;fill:rgb(0%,0%,0%);fill-opacity:1;" d="M 19.792969 13.542969 L 22.917969 13.542969 L 22.917969 28.125 L 19.792969 28.125 Z M 19.792969 13.542969 "/>
<path style=" stroke:none;fill-rule:nonzero;fill:rgb(0%,0%,0%);fill-opacity:1;" d="M 27.082031 13.542969 L 30.207031 13.542969 L 30.207031 28.125 L 27.082031 28.125 Z M 27.082031 13.542969 "/>
<path style=" stroke:none;fill-rule:nonzero;fill:rgb(0%,0%,0%);fill-opacity:1;" d="M 32.292969 15.625 L 32.292969 18.75 L 17.707031 18.75 L 17.707031 15.625 Z M 32.292969 15.625 "/>
<path style=" stroke:none;fill-rule:nonzero;fill:rgb(0%,0%,0%);fill-opacity:1;" d="M 32.292969 22.917969 L 32.292969 26.042969 L 17.707031 26.042969 L 17.707031 22.917969 Z M 32.292969 22.917969 "/>
<path style=" stroke:none;fill-rule:nonzero;fill:rgb(0%,0%,0%);fill-opacity:1;" d="M 25 37.5 C 20.054688 37.5 15.347656 34.921875 12.410156 30.601562 C 11.925781 29.890625 12.113281 28.917969 12.824219 28.433594 C 13.539062 27.949219 14.507812 28.132812 14.996094 28.847656 C 17.382812 32.359375 21.03125 34.375 25 34.375 C 28.96875 34.375 32.617188 32.359375 35.003906 28.847656 C 35.492188 28.132812 36.460938 27.949219 37.175781 28.433594 C 37.886719 28.917969 38.074219 29.890625 37.585938 30.605469 C 34.652344 34.921875 29.945312 37.5 25 37.5 Z M 25 37.5 "/>
</g>
</svg>
